<svg width="24" height="24" viewBox="0 0 24 24" fill="none" xmlns="http://www.w3.org/2000/svg">
<path d="M11.9955 21.3749C13.4533 21.3749 14.2501 20.3437 14.2501 18.8906H9.73608C9.73608 20.3437 10.533 21.3749 11.9955 21.3749ZM19.3126 16.5093C18.5908 15.5577 17.1705 14.9999 17.1705 10.739C17.1705 6.36555 15.2392 4.60774 13.4392 4.18586C13.2705 4.14368 13.1486 4.08743 13.1486 3.9093V3.77336C13.1486 3.14524 12.633 2.61555 12.0048 2.62024C11.3767 2.61086 10.8611 3.14524 10.8611 3.77336V3.9093C10.8611 4.08274 10.7392 4.14368 10.5705 4.18586C8.76577 4.61243 6.83921 6.36555 6.83921 10.739C6.83921 14.9999 5.41889 15.5531 4.69702 16.5093C4.23296 17.1234 4.67358 17.9999 5.44233 17.9999H18.572C19.3361 17.9999 19.7767 17.1187 19.3126 16.5093Z" fill="white"/>
<circle cx="17" cy="7" r="5" fill="#B93221"/>
<path d="M18.1289 10H17V5.64844L15.6523 6.06641V5.14844L18.0078 4.30469H18.1289V10Z" fill="white"/>
</svg>
