<svg width="36" height="36" viewBox="0 0 36 36" fill="none" xmlns="http://www.w3.org/2000/svg">
<path d="M17.9168 0C20.7252 0 23.3985 0.654933 25.7958 1.82315C26.1724 1.99526 26.5504 2.20088 26.9255 2.40802L25.2813 3.88543L22.8165 1.30834L18.5679 5.0902L16.0671 2.37299L8.25564 9.4219L13.2573 14.9584L11.304 16.6764L16.2396 22.2129L14.2864 23.931L21.3433 31.8054L25.5213 27.9535L29.1532 32.0811C28.4332 32.6309 27.6456 33.1823 26.7905 33.6636C24.0898 35.1982 21.0462 36.0028 17.9513 36C8.05011 35.9985 0.000110508 27.9184 0.000110508 17.9848C-0.0343938 8.11508 8.01561 0 17.9168 0Z" fill="#0D9499"/>
<rect width="5.68832" height="5.68822" transform="matrix(0.745492 -0.666514 0.666639 0.745381 11.6044 9.55786)" fill="#FD7903"/>
<rect width="4.30135" height="4.30126" transform="matrix(0.748862 -0.662726 0.662852 0.748751 19.3933 7.49121)" fill="#FD7903"/>
<rect width="2.86067" height="3.00966" transform="matrix(0.736561 -0.676371 0.676495 0.736447 26.5156 6.08044)" fill="#FD7903"/>
<rect width="2.86067" height="3.00966" transform="matrix(0.736561 -0.676371 0.676495 0.736447 29.1846 12.4115)" fill="#FD7903"/>
<rect width="2.86067" height="3.00966" transform="matrix(0.736561 -0.676371 0.676495 0.736447 31.8569 18.7396)" fill="#FD7903"/>
<rect width="4.18992" height="4.40814" transform="matrix(0.736561 -0.676371 0.676495 0.736447 22.439 13.9434)" fill="#FD7903"/>
<rect width="5.8911" height="5.77865" transform="matrix(0.736561 -0.676371 0.676495 0.736447 14.5964 17.015)" fill="#FD7903"/>
<rect width="5.8911" height="5.77865" transform="matrix(0.736561 -0.676371 0.676495 0.736447 17.5811 24.3751)" fill="#FD7903"/>
<rect width="4.39344" height="4.30958" transform="matrix(0.736561 -0.676371 0.676495 0.736447 25.0134 20.7606)" fill="#FD7903"/>
<rect width="4.39344" height="4.30958" transform="matrix(0.736561 -0.676371 0.676495 0.736447 27.9187 27.2294)" fill="#FD7903"/>
</svg>
