<svg width="36" height="36" viewBox="0 0 36 36" fill="none" xmlns="http://www.w3.org/2000/svg">
<path d="M18 3.375C9.95625 3.375 3.375 9.95625 3.375 18C3.375 26.0438 9.95625 32.625 18 32.625C26.0438 32.625 32.625 26.0438 32.625 18C32.625 9.95625 26.0438 3.375 18 3.375ZM18 7.7625C20.4117 7.7625 22.3875 9.73828 22.3875 12.15C22.3875 14.5617 20.4117 16.5375 18 16.5375C15.5883 16.5375 13.6125 14.5617 13.6125 12.15C13.6125 9.73828 15.5883 7.7625 18 7.7625ZM18 28.8844C14.3438 28.8844 11.1234 26.9859 9.225 24.2016C9.29531 21.2766 15.075 19.6664 18 19.6664C20.925 19.6664 26.7047 21.2766 26.775 24.2016C24.8766 26.9789 21.6562 28.8844 18 28.8844Z" fill="#A0A0A0"/>
</svg>
