<svg width="16" height="16" viewBox="0 0 16 16" fill="none" xmlns="http://www.w3.org/2000/svg">
<path d="M8 9.80781L4.03125 13.7797C3.7375 14.0734 3.2625 14.0734 2.97188 13.7797C2.68125 13.4859 2.68125 13.0109 2.97188 12.7172L7.46875 8.21719C7.75313 7.93281 8.20938 7.92656 8.50313 8.19531L13.0313 12.7141C13.1781 12.8609 13.25 13.0547 13.25 13.2453C13.25 13.4359 13.1781 13.6297 13.0313 13.7766C12.7375 14.0703 12.2625 14.0703 11.9719 13.7766L8 9.80781Z" fill="#FD7903"/>
<path d="M8 4.80781L4.03125 8.77969C3.7375 9.07344 3.2625 9.07344 2.97188 8.77969C2.68125 8.48594 2.68125 8.01094 2.97188 7.71719L7.46875 3.21719C7.75313 2.93281 8.20938 2.92656 8.50313 3.19531L13.0313 7.71406C13.1781 7.86094 13.25 8.05469 13.25 8.24531C13.25 8.43594 13.1781 8.62969 13.0313 8.77656C12.7375 9.07031 12.2625 9.07031 11.9719 8.77656L8 4.80781Z" fill="#FD7903"/>
</svg>
