<svg width="16" height="16" viewBox="0 0 16 16" fill="none" xmlns="http://www.w3.org/2000/svg">
<path d="M8 6.19219L11.9687 2.22032C12.2625 1.92657 12.7375 1.92657 13.0281 2.22032C13.3187 2.51407 13.3187 2.98907 13.0281 3.28282L8.53125 7.78281C8.24687 8.06719 7.79062 8.07344 7.49687 7.80469L2.96875 3.28594C2.82187 3.13906 2.75 2.94531 2.75 2.75469C2.75 2.56406 2.82187 2.37031 2.96875 2.22344C3.2625 1.92969 3.7375 1.92969 4.02812 2.22344L8 6.19219Z" fill="#FD7903"/>
<path d="M8 11.1922L11.9687 7.22032C12.2625 6.92657 12.7375 6.92657 13.0281 7.22032C13.3187 7.51407 13.3187 7.98907 13.0281 8.28282L8.53125 12.7828C8.24687 13.0672 7.79062 13.0734 7.49687 12.8047L2.96875 8.28594C2.82187 8.13906 2.75 7.94531 2.75 7.75469C2.75 7.56406 2.82187 7.37031 2.96875 7.22344C3.2625 6.92969 3.7375 6.92969 4.02812 7.22344L8 11.1922Z" fill="#FD7903"/>
</svg>
