<svg width="16" height="16" viewBox="0 0 16 16" fill="none" xmlns="http://www.w3.org/2000/svg">
<path d="M5.80659 5.13928L7.33325 3.60595V9.99928C7.33325 10.1761 7.40349 10.3457 7.52851 10.4707C7.65354 10.5957 7.82311 10.6659 7.99992 10.6659C8.17673 10.6659 8.3463 10.5957 8.47132 10.4707C8.59635 10.3457 8.66659 10.1761 8.66659 9.99928V3.60595L10.1933 5.13928C10.2552 5.20177 10.329 5.25136 10.4102 5.28521C10.4914 5.31905 10.5786 5.33648 10.6666 5.33648C10.7546 5.33648 10.8417 5.31905 10.923 5.28521C11.0042 5.25136 11.0779 5.20177 11.1399 5.13928C11.2024 5.0773 11.252 5.00357 11.2858 4.92233C11.3197 4.84109 11.3371 4.75395 11.3371 4.66595C11.3371 4.57794 11.3197 4.4908 11.2858 4.40956C11.252 4.32832 11.2024 4.25459 11.1399 4.19261L8.47325 1.52595C8.40985 1.46525 8.33509 1.41768 8.25325 1.38595C8.09094 1.31927 7.90889 1.31927 7.74659 1.38595C7.66475 1.41768 7.58999 1.46525 7.52659 1.52595L4.85992 4.19261C4.79776 4.25477 4.74845 4.32857 4.71481 4.40978C4.68117 4.491 4.66386 4.57804 4.66386 4.66595C4.66386 4.75385 4.68117 4.8409 4.71481 4.92211C4.74845 5.00333 4.79776 5.07712 4.85992 5.13928C4.92208 5.20144 4.99587 5.25075 5.07709 5.28439C5.1583 5.31803 5.24535 5.33534 5.33325 5.33534C5.42116 5.33534 5.5082 5.31803 5.58942 5.28439C5.67063 5.25075 5.74443 5.20144 5.80659 5.13928ZM13.9999 9.33261C13.8231 9.33261 13.6535 9.40285 13.5285 9.52788C13.4035 9.6529 13.3333 9.82247 13.3333 9.99928V12.6659C13.3333 12.8428 13.263 13.0123 13.138 13.1374C13.013 13.2624 12.8434 13.3326 12.6666 13.3326H3.33325C3.15644 13.3326 2.98687 13.2624 2.86185 13.1374C2.73682 13.0123 2.66659 12.8428 2.66659 12.6659V9.99928C2.66659 9.82247 2.59635 9.6529 2.47132 9.52788C2.3463 9.40285 2.17673 9.33261 1.99992 9.33261C1.82311 9.33261 1.65354 9.40285 1.52851 9.52788C1.40349 9.6529 1.33325 9.82247 1.33325 9.99928V12.6659C1.33325 13.1964 1.54397 13.7051 1.91904 14.0802C2.29411 14.4552 2.80282 14.6659 3.33325 14.6659H12.6666C13.197 14.6659 13.7057 14.4552 14.0808 14.0802C14.4559 13.7051 14.6666 13.1964 14.6666 12.6659V9.99928C14.6666 9.82247 14.5963 9.6529 14.4713 9.52788C14.3463 9.40285 14.1767 9.33261 13.9999 9.33261Z" fill="#FD7903"/>
</svg>
