<svg width="16" height="16" viewBox="0 0 16 16" fill="none" xmlns="http://www.w3.org/2000/svg">
<path d="M13.9999 9.33398C13.8231 9.33398 13.6535 9.40422 13.5285 9.52925C13.4035 9.65427 13.3333 9.82384 13.3333 10.0007V12.6673C13.3333 12.8441 13.263 13.0137 13.138 13.1387C13.013 13.2637 12.8434 13.334 12.6666 13.334H3.33325C3.15644 13.334 2.98687 13.2637 2.86185 13.1387C2.73682 13.0137 2.66659 12.8441 2.66659 12.6673V10.0007C2.66659 9.82384 2.59635 9.65427 2.47132 9.52925C2.3463 9.40422 2.17673 9.33398 1.99992 9.33398C1.82311 9.33398 1.65354 9.40422 1.52851 9.52925C1.40349 9.65427 1.33325 9.82384 1.33325 10.0007V12.6673C1.33325 13.1978 1.54397 13.7065 1.91904 14.0815C2.29411 14.4566 2.80282 14.6673 3.33325 14.6673H12.6666C13.197 14.6673 13.7057 14.4566 14.0808 14.0815C14.4559 13.7065 14.6666 13.1978 14.6666 12.6673V10.0007C14.6666 9.82384 14.5963 9.65427 14.4713 9.52925C14.3463 9.40422 14.1767 9.33398 13.9999 9.33398ZM7.52659 10.474C7.58999 10.5347 7.66475 10.5823 7.74659 10.614C7.82639 10.6493 7.91267 10.6675 7.99992 10.6675C8.08717 10.6675 8.17345 10.6493 8.25325 10.614C8.33509 10.5823 8.40985 10.5347 8.47325 10.474L11.1399 7.80732C11.2655 7.68178 11.336 7.51152 11.336 7.33398C11.336 7.15645 11.2655 6.98619 11.1399 6.86065C11.0144 6.73512 10.8441 6.66459 10.6666 6.66459C10.4891 6.66459 10.3188 6.73512 10.1933 6.86065L8.66659 8.39398V2.00065C8.66659 1.82384 8.59635 1.65427 8.47132 1.52925C8.3463 1.40422 8.17673 1.33398 7.99992 1.33398C7.82311 1.33398 7.65354 1.40422 7.52851 1.52925C7.40349 1.65427 7.33325 1.82384 7.33325 2.00065V8.39398L5.80659 6.86065C5.74443 6.79849 5.67063 6.74918 5.58942 6.71554C5.5082 6.6819 5.42116 6.66459 5.33325 6.66459C5.24535 6.66459 5.1583 6.6819 5.07709 6.71554C4.99587 6.74918 4.92208 6.79849 4.85992 6.86065C4.79776 6.92281 4.74845 6.9966 4.71481 7.07782C4.68117 7.15903 4.66386 7.24608 4.66386 7.33398C4.66386 7.42189 4.68117 7.50894 4.71481 7.59015C4.74845 7.67137 4.79776 7.74516 4.85992 7.80732L7.52659 10.474Z" fill="#FD7903"/>
</svg>
