<svg width="24" height="24" viewBox="0 0 24 24" fill="none" xmlns="http://www.w3.org/2000/svg">
<path d="M8.12918 16.7316H22.1337V18.3942H6.72358L3.88437 6.14255H0V4.48089H5.28817L8.12918 16.7316ZM9.71996 19.5002C8.41283 19.5002 7.35321 20.5067 7.35321 21.7492C7.35321 22.991 8.41283 24 9.71996 24C11.0271 24 12.0867 22.991 12.0867 21.7492C12.0867 20.5067 11.0271 19.5002 9.71996 19.5002ZM19.4761 19.5002C18.1707 19.5002 17.1102 20.5067 17.1102 21.7492C17.1102 22.991 18.1707 24 19.4761 24C20.7832 24 21.8437 22.991 21.8437 21.7492C21.8446 20.5067 20.7841 19.5002 19.4761 19.5002ZM9.01355 15.4873L6.93767 5.26664H10.3342L17.8618 0L21.2304 4.34865L21.0849 5.26664H24L21.5727 15.4873H9.01355ZM20.6811 4.70331L19.8753 5.26664H20.5926L20.6811 4.70331ZM11.1545 5.26578H12.9232L12.8175 5.12838L13.1599 4.88879L13.4526 5.26578H13.8862L13.4417 4.69128L13.785 4.4517L14.4146 5.26578H14.9061L14.1021 4.22928L14.4463 3.9897L15.4354 5.26578H16.0009L14.8257 3.74753L15.168 3.50708L16.5294 5.26578H17.0208L15.4878 3.28381L15.8302 3.04508L17.5483 5.26578H19.0551L20.5357 4.231L17.7624 0.644912L11.1545 5.26578ZM19.0244 4.5556L17.1382 2.11765L16.7931 2.35723L18.6802 4.79519L19.0244 4.5556ZM18.365 5.01932L16.477 2.58051L16.1346 2.82009L18.0244 5.25805L18.365 5.01932Z" fill="#A0A0A0"/>
</svg>
