<svg width="16" height="16" viewBox="0 0 16 16" fill="none" xmlns="http://www.w3.org/2000/svg">
<path d="M2.66667 2.66667H6.66667V6.66667H2.66667V2.66667ZM13.3333 2.66667V6.66667H9.33333V2.66667H13.3333ZM9.33333 10H10.6667V8.66667H9.33333V7.33333H10.6667V8.66667H12V7.33333H13.3333V8.66667H12V10H13.3333V12H12V13.3333H10.6667V12H8.66667V13.3333H7.33333V10.6667H9.33333V10ZM10.6667 10V12H12V10H10.6667ZM2.66667 13.3333V9.33333H6.66667V13.3333H2.66667ZM4 4V5.33333H5.33333V4H4ZM10.6667 4V5.33333H12V4H10.6667ZM4 10.6667V12H5.33333V10.6667H4ZM2.66667 7.33333H4V8.66667H2.66667V7.33333ZM6 7.33333H8.66667V10H7.33333V8.66667H6V7.33333ZM7.33333 4H8.66667V6.66667H7.33333V4ZM1.33333 1.33333V4H0V1.33333C0 0.979711 0.140476 0.640573 0.390524 0.390524C0.640573 0.140476 0.979711 0 1.33333 0L4 0V1.33333H1.33333ZM14.6667 0C15.0203 0 15.3594 0.140476 15.6095 0.390524C15.8595 0.640573 16 0.979711 16 1.33333V4H14.6667V1.33333H12V0H14.6667ZM1.33333 12V14.6667H4V16H1.33333C0.979711 16 0.640573 15.8595 0.390524 15.6095C0.140476 15.3594 0 15.0203 0 14.6667V12H1.33333ZM14.6667 14.6667V12H16V14.6667C16 15.0203 15.8595 15.3594 15.6095 15.6095C15.3594 15.8595 15.0203 16 14.6667 16H12V14.6667H14.6667Z" fill="#454545"/>
</svg>
